<?xml version="1.0" encoding="UTF-8"?>
<!-- Generated by Pixelmator Pro 2.4.5 -->
<svg width="33" height="28" viewBox="0 0 33 28" xmlns="http://www.w3.org/2000/svg" xmlns:xlink="http://www.w3.org/1999/xlink">
    <path id="Path" fill="#000000" stroke="none" d="M -0 2.333334 C -0 1.042707 1.042708 0 2.333333 0 L 30.333334 0 C 31.623959 0 32.666668 1.042707 32.666668 2.333334 C 32.666668 3.623959 31.623959 4.666666 30.333334 4.666666 L 2.333333 4.666666 C 1.042708 4.666666 -0 3.623959 -0 2.333334 Z M -0 14 C -0 12.709374 1.042708 11.666666 2.333333 11.666666 L 30.333334 11.666666 C 31.623959 11.666666 32.666668 12.709374 32.666668 14 C 32.666668 15.290626 31.623959 16.333332 30.333334 16.333332 L 2.333333 16.333332 C 1.042708 16.333332 -0 15.290626 -0 14 Z M 32.666668 25.666666 C 32.666668 26.957293 31.623959 28 30.333334 28 L 2.333333 28 C 1.042708 28 -0 26.957293 -0 25.666666 C -0 24.376041 1.042708 23.333334 2.333333 23.333334 L 30.333334 23.333334 C 31.623959 23.333334 32.666668 24.376041 32.666668 25.666666 Z"/>
</svg>
